<?xml version="1.0" encoding="UTF-8" standalone="no" ?>
<!DOCTYPE svg PUBLIC "-//W3C//DTD SVG 1.1//EN" "http://www.w3.org/Graphics/SVG/1.1/DTD/svg11.dtd">
<svg xmlns="http://www.w3.org/2000/svg" xmlns:xlink="http://www.w3.org/1999/xlink" version="1.1" width="1280" height="1024" viewBox="0 0 1280 1024" xml:space="preserve">
<desc>Created with Fabric.js 4.4.0</desc>
<defs>
</defs>
<g transform="matrix(1 0 0 1 640 512)" id="background-logo"  >
<rect style="stroke: none; stroke-width: 0; stroke-dasharray: none; stroke-linecap: butt; stroke-dashoffset: 0; stroke-linejoin: miter; stroke-miterlimit: 4; fill: rgb(255,255,255); fill-rule: nonzero; opacity: 1;"  paint-order="stroke"  x="-640" y="-512" rx="0" ry="0" width="1280" height="1024" />
</g>
<g transform="matrix(1.9211538461538462 0 0 1.9211538461538462 656.0936507564918 696.1559448605644)" id="text-logo"  >
<g style=""  paint-order="stroke"   >
		<g transform="matrix(1 0 0 1 0 0)" id="text-logo-path-0"  >
<path style="stroke: none; stroke-width: 0; stroke-dasharray: none; stroke-linecap: butt; stroke-dashoffset: 0; stroke-linejoin: miter; stroke-miterlimit: 4; fill: rgb(83,33,176); fill-rule: nonzero; opacity: 1;"  paint-order="stroke"  transform=" translate(-199.61499999999998, 35.739999999999995)" d="M 5.67 -72.1 L 5.67 0 L 26.27 0 C 46.04 0 62.32 -16.27 62.32 -36.05 C 62.32 -55.83 46.04 -72.1 26.27 -72.1 Z M 13.91 -8.24 L 13.91 -63.86 L 26.27 -63.86 C 42.02 -63.86 54.08 -51.81 54.08 -36.05 C 54.08 -20.29 42.02 -8.24 26.27 -8.24 Z M 26.47 -36.05 C 26.47 -39.14 29.05 -41.72 32.14 -41.72 C 35.23 -41.72 37.8 -39.14 37.8 -36.05 C 37.8 -32.96 35.23 -30.39 32.14 -30.39 C 29.05 -30.39 26.47 -32.96 26.47 -36.05 Z M 120.61 -72.1 L 112.48 -53.97 L 104.34 -72.1 L 95.28 -72.1 L 107.94 -43.88 L 97.03 -19.57 L 73.44 -72.1 L 64.38 -72.1 L 97.03 0.62 L 112.48 -33.78 L 127.93 0.62 L 160.58 -72.1 L 151.51 -72.1 L 127.93 -19.57 L 117.01 -43.88 L 129.68 -72.1 Z M 171.91 -72.1 L 171.91 0 L 218.26 0 L 218.26 -8.24 L 180.15 -8.24 L 180.15 -31.93 L 213.11 -31.93 L 213.11 -40.17 L 180.15 -40.17 L 180.15 -63.86 L 218.26 -63.86 L 218.26 -72.1 Z M 229.59 -72.1 L 229.59 0 L 273.88 0 L 273.88 -8.24 L 237.83 -8.24 L 237.83 -72.1 Z M 285.21 -72.1 L 285.21 0 L 329.5 0 L 329.5 -8.24 L 293.45 -8.24 L 293.45 -72.1 Z M 340.83 -72.1 L 340.83 0 L 349.07 0 L 349.07 -30.9 L 366.58 -30.9 L 384.29 0 L 393.56 0 L 375.54 -31.42 C 384.81 -33.37 391.92 -41.72 391.92 -51.5 C 391.92 -62.83 382.44 -72.1 371.21 -72.1 Z M 349.07 -39.14 L 349.07 -63.86 L 371.21 -63.86 C 378.53 -63.86 383.68 -58.81 383.68 -51.5 C 383.68 -44.29 378.53 -39.14 371.21 -39.14 Z" stroke-linecap="round" />
</g>
</g>
</g>
<g transform="matrix(1.4638532462487706 0 0 1.4638532462487708 640.1259074410165 374.2359084742685)" id="logo-logo"  >
<g style=""  paint-order="stroke"   >
		<g transform="matrix(0.17186194132829663 0 0 -0.17186194132829663 0 1.3400608955964515)"  >
<path style="stroke: none; stroke-width: 1; stroke-dasharray: none; stroke-linecap: butt; stroke-dashoffset: 0; stroke-linejoin: miter; stroke-miterlimit: 4; fill: rgb(129,79,222); fill-rule: nonzero; opacity: 1;"  paint-order="stroke"  transform=" translate(-1625.0259999999998, -1296.1405)" d="M 2282.31 868.781 L 2161.88 1328.11 L 2161.88 1328.11 L 2135.4 1723.5 L 1114.57 1723.5 L 1088.07 1327.71 L 967.742 868.7810000000001 L 1624.99 1633.63 z M 1313.35 1520.1599999999999 C 1275.23 1520.1599999999999 1244.33 1551.06 1244.33 1589.1799999999998 C 1244.33 1627.2999999999997 1275.23 1658.2099999999998 1313.35 1658.2099999999998 C 1351.4699999999998 1658.2099999999998 1382.37 1627.2999999999997 1382.37 1589.1799999999998 C 1382.37 1551.06 1351.4699999999998 1520.1599999999999 1313.35 1520.1599999999999 z M 1936.6299999999999 1520.1599999999999 C 1898.51 1520.1599999999999 1867.61 1551.06 1867.61 1589.1799999999998 C 1867.61 1627.2999999999997 1898.51 1658.2099999999998 1936.6299999999999 1658.2099999999998 C 1974.7499999999998 1658.2099999999998 2005.6499999999999 1627.2999999999997 2005.6499999999999 1589.1799999999998 C 2005.6499999999999 1551.06 1974.7499999999998 1520.1599999999999 1936.6299999999999 1520.1599999999999" stroke-linecap="round" />
</g>
		<g transform="matrix(0.17186194132829663 0 0 -0.17186194132829663 0 56.613837142221)"  >
<path style="stroke: none; stroke-width: 1; stroke-dasharray: none; stroke-linecap: butt; stroke-dashoffset: 0; stroke-linejoin: miter; stroke-miterlimit: 4; fill: rgb(178,148,235); fill-rule: nonzero; opacity: 1;"  paint-order="stroke"  transform=" translate(-1625.002, -971.05)" d="M 2289.93 648.391 L 1624.99 1422.1 L 960.074 648.391 L 1042.58 648.391 L 1033.98 520 L 2215.99 520 L 2207.3999999999996 648.391 z M 1602.0899999999997 681.6519999999999 L 1480.3 681.6519999999999 L 1480.3 803.434 L 1602.09 803.434 z M 1602.0899999999997 849.266 L 1480.3 849.266 L 1480.3 971.047 L 1602.09 971.047 z M 1769.7 681.652 L 1647.92 681.652 L 1647.92 803.4340000000001 L 1769.7 803.4340000000001 z M 1769.7 849.2660000000001 L 1647.92 849.2660000000001 L 1647.92 971.047 L 1769.7 971.047 L 1769.7 849.266" stroke-linecap="round" />
</g>
		<g transform="matrix(0.17186194132829663 0 0 -0.17186194132829663 0 -90.61070706607799)"  >
<path style="stroke: none; stroke-width: 1; stroke-dasharray: none; stroke-linecap: butt; stroke-dashoffset: 0; stroke-linejoin: miter; stroke-miterlimit: 4; fill: rgb(83,33,176); fill-rule: nonzero; opacity: 1;"  paint-order="stroke"  transform=" translate(-1624.9850000000001, -1826.7649999999999)" d="M 1937.07 1573.53 C 1919.34 1573.53 1904.96 1587.91 1904.96 1605.6299999999999 L 1904.96 1735.81 C 1904.96 1890.1999999999998 1779.3700000000001 2015.8 1624.99 2015.8 C 1470.6100000000001 2015.8 1345.01 1890.2 1345.01 1735.81 L 1345.01 1605.6299999999999 C 1345.01 1587.9099999999999 1330.64 1573.53 1312.91 1573.53 C 1295.18 1573.53 1280.8100000000002 1587.91 1280.8100000000002 1605.6299999999999 L 1280.8100000000002 1735.81 C 1280.8100000000002 1925.61 1435.2100000000003 2080 1624.9900000000002 2080 C 1814.7700000000002 2080 1969.1600000000003 1925.6100000000001 1969.1600000000003 1735.81 L 1969.1600000000003 1605.6299999999999 C 1969.1600000000003 1587.9099999999999 1954.8000000000004 1573.53 1937.0700000000004 1573.53" stroke-linecap="round" />
</g>
</g>
</g>
</svg>